<?xml version="1.0" standalone="no"?>
<!DOCTYPE svg PUBLIC "-//W3C//DTD SVG 20010904//EN"
 "http://www.w3.org/TR/2001/REC-SVG-20010904/DTD/svg10.dtd">
<svg version="1.0" xmlns="http://www.w3.org/2000/svg"
 width="512.000000pt" height="512.000000pt" viewBox="0 0 512.000000 512.000000"
 preserveAspectRatio="xMidYMid meet">

<g transform="translate(0.000000,512.000000) scale(0.100000,-0.100000)"
fill="#000000" stroke="none">
<path d="M965 3421 c-129 -37 -243 -118 -320 -225 -122 -172 -154 -371 -89
-564 45 -137 201 -411 327 -577 55 -72 131 -132 179 -142 27 -5 28 -7 28 -74
0 -58 3 -70 20 -79 14 -8 26 -8 40 0 17 9 20 21 20 79 l0 68 42 12 c63 19 152
115 264 287 276 418 322 636 193 902 -74 154 -228 278 -390 317 -86 20 -238
18 -314 -4z m290 -66 c92 -24 161 -62 230 -127 200 -186 234 -431 98 -703 -38
-75 -192 -334 -223 -375 l-20 -25 0 55 c0 31 5 61 11 67 20 20 0 53 -31 53
-29 0 -29 1 -32 61 -3 69 -22 94 -55 73 -13 -8 -19 -27 -21 -73 l-3 -61 -79 0
-80 0 0 59 c0 62 -14 86 -47 79 -14 -3 -19 -16 -23 -68 l-5 -65 -38 -3 -37 -3
6 -82 6 -82 -21 25 c-67 81 -234 389 -270 501 -65 196 -16 403 128 548 71 71
155 122 242 145 72 19 191 20 264 1z"/>
<path d="M1127 3221 c-23 -32 -85 -118 -137 -190 -52 -72 -112 -154 -132 -182
-69 -96 -53 -119 85 -119 l99 0 -6 -27 c-3 -16 -9 -71 -12 -124 -7 -92 -6 -96
16 -112 17 -12 28 -13 42 -6 39 21 334 386 344 427 4 15 0 30 -11 42 -16 17
-31 20 -113 20 l-95 0 6 38 c3 20 11 83 18 139 11 91 10 105 -5 127 -26 41
-51 33 -99 -33z m23 -195 c-7 -57 -10 -111 -7 -120 5 -12 27 -16 107 -18 l102
-3 -38 -50 c-21 -27 -80 -101 -131 -163 -103 -125 -102 -125 -82 13 15 101 13
104 -108 107 l-95 3 62 80 c34 44 91 122 127 173 36 51 67 91 70 88 3 -3 0
-52 -7 -110z"/>
<path d="M2952 3273 c-25 -10 -34 -53 -17 -79 18 -28 65 -33 85 -9 40 48 -10
111 -68 88z"/>
<path d="M3948 3269 c-21 -12 -24 -69 -6 -87 21 -21 66 -14 83 12 34 51 -23
107 -77 75z"/>
<path d="M1995 3210 l-1 -39 123 -3 123 -3 -125 -172 c-104 -143 -125 -178
-125 -208 l0 -35 195 0 195 0 0 40 0 39 -131 3 -130 3 125 172 c106 144 126
177 126 207 l0 36 -187 0 -188 0 0 -40z"/>
<path d="M3645 3111 c-49 -22 -73 -48 -91 -98 -29 -83 -7 -186 51 -231 88 -69
222 -45 270 48 l14 28 -46 13 c-39 10 -48 10 -51 0 -13 -40 -63 -61 -107 -45
-26 10 -45 59 -45 114 0 44 5 56 29 81 17 17 40 29 55 29 25 0 59 -25 67 -49
5 -15 79 -2 86 15 8 22 -37 75 -81 95 -52 24 -100 24 -151 0z"/>
<path d="M4190 3108 c-25 -13 -54 -38 -66 -55 -44 -66 -38 -184 11 -249 67
-88 232 -79 288 14 l17 30 -47 10 c-43 10 -48 9 -65 -14 -38 -48 -138 -15
-138 46 0 19 6 20 130 20 146 0 139 -5 119 79 -13 60 -44 100 -93 122 -55 25
-102 24 -156 -3z m128 -75 c11 -10 23 -28 27 -40 6 -23 5 -23 -74 -23 -89 0
-97 7 -60 54 25 31 76 35 107 9z"/>
<path d="M2430 2982 c0 -114 3 -143 18 -171 38 -70 129 -89 194 -41 28 21 28
21 28 0 0 -17 6 -20 50 -20 l50 0 0 185 0 185 -50 0 -50 0 0 -125 c0 -112 -2
-127 -20 -145 -26 -26 -81 -26 -103 -2 -14 15 -17 41 -17 145 l0 127 -50 0
-50 0 0 -138z"/>
<path d="M2830 3080 l0 -40 85 0 86 0 -86 -111 c-68 -89 -85 -118 -85 -145 l0
-34 150 0 150 0 0 40 0 39 -89 3 -88 3 83 107 c69 88 84 114 84 143 l0 35
-145 0 -145 0 0 -40z"/>
<path d="M3160 3116 c0 -3 29 -87 65 -188 36 -100 65 -189 65 -199 0 -24 -24
-41 -62 -44 -30 -2 -33 -6 -36 -38 -4 -41 17 -53 71 -42 54 12 86 34 106 73
19 38 151 416 151 433 0 6 -21 9 -47 7 l-47 -3 -33 -115 c-19 -63 -36 -122
-40 -130 -3 -9 -24 41 -48 115 l-42 130 -51 3 c-29 2 -52 1 -52 -2z"/>
<path d="M3939 3118 c-3 -13 -4 -337 -1 -350 3 -14 15 -18 48 -18 l44 0 0 185
0 185 -45 0 c-25 0 -45 -1 -46 -2z"/>
<path d="M2005 2558 c-3 -7 -4 -121 -3 -253 l3 -240 50 0 50 0 3 81 3 81 79 6
c97 6 144 31 171 91 25 55 24 104 -4 156 -36 68 -77 84 -224 89 -97 2 -124 0
-128 -11z m239 -99 c20 -16 26 -29 26 -59 0 -54 -34 -80 -106 -80 l-54 0 0 80
0 80 54 0 c39 0 60 -6 80 -21z"/>
<path d="M3370 2478 l0 -91 -22 21 c-56 52 -136 51 -192 -2 -85 -79 -71 -260
24 -324 46 -31 127 -27 165 8 l25 23 0 -21 c0 -19 5 -22 45 -22 l45 0 0 250 0
250 -45 0 -45 0 0 -92z m-55 -122 c84 -35 62 -216 -26 -216 -41 0 -58 9 -74
41 -38 73 -4 173 63 188 1 1 18 -5 37 -13z"/>
<path d="M2590 2439 c-13 -6 -33 -17 -42 -26 -17 -15 -18 -15 -18 5 0 19 -6
22 -45 22 l-45 0 0 -185 0 -185 50 0 50 0 0 115 c0 110 1 117 25 140 18 19 35
25 65 25 l41 0 -3 48 c-3 42 -6 47 -28 49 -14 1 -36 -2 -50 -8z"/>
<path d="M2812 2441 c-38 -10 -68 -35 -88 -73 -22 -42 -18 -48 32 -48 37 0 50
5 66 25 36 46 126 21 116 -32 -3 -15 -16 -19 -79 -24 -80 -7 -103 -15 -132
-47 -24 -26 -31 -90 -15 -122 28 -53 122 -75 195 -45 43 18 43 18 43 2 0 -8
-11 -24 -25 -37 -30 -28 -34 -79 -7 -103 18 -17 76 -23 106 -11 9 3 16 17 16
31 0 22 -3 24 -29 18 -17 -4 -32 -2 -36 5 -12 20 4 59 33 75 l27 17 -3 141
c-5 157 -13 187 -63 212 -37 20 -113 27 -157 16z m128 -240 c0 -53 -70 -88
-121 -61 -21 12 -26 52 -6 68 14 11 47 19 95 21 29 1 32 -2 32 -28z"/>
<path d="M3540 2294 c0 -164 8 -191 66 -219 47 -22 96 -19 138 10 34 23 36 23
36 5 0 -17 7 -20 45 -20 l45 0 0 185 0 185 -45 0 -45 0 0 -115 c0 -63 -5 -125
-11 -139 -16 -34 -62 -52 -95 -38 -36 17 -44 50 -44 178 l0 114 -45 0 -45 0 0
-146z"/>
</g>
</svg>
